<?xml version='1.0' encoding='iso-8859-1'?>
<!DOCTYPE svg PUBLIC '-//W3C//DTD SVG 1.1//EN' 'http://www.w3.org/Graphics/SVG/1.1/DTD/svg11.dtd'>
<svg version="1.1" xmlns="http://www.w3.org/2000/svg" viewBox="0 0 243.667 243.667" xmlns:xlink="http://www.w3.org/1999/xlink" enable-background="new 0 0 243.667 243.667">
  <g>
    <path d="m210.594,39.355h-177.521c-18.237,0-33.073,14.836-33.073,33.073v125.884c0,3.313 2.686,6 6,6 3.314,0 6-2.687 6-6v-33.479h219.667v33.479c0,3.313 2.686,6 6,6 3.314,0 6-2.687 6-6v-125.884c0-18.237-14.836-33.073-33.073-33.073zm-177.521,12h177.521c9.534,0 17.599,6.369 20.191,15.073h-217.903c2.592-8.704 10.656-15.073 20.191-15.073zm122.315,101.478v-74.405h37.779v74.406h-37.779zm-55.109-.001v-74.405h43.108v74.406h-43.108zm-49.779-.001v-74.405h37.779v74.406h-37.779zm-38.5-74.406h26.5v74.406h-26.5v-74.406zm193.167,0h26.5v74.406h-26.5v-74.406z"/>
  </g>
</svg>
